<?xml version="1.0" encoding="UTF-8" standalone="no"?>
<!-- Created with Inkscape (http://www.inkscape.org/) -->

<svg
   version="1.1"
   id="svg2"
   width="118.984"
   height="113.84533"
   viewBox="0 0 118.984 113.84533"
   xmlns="http://www.w3.org/2000/svg"
   xmlns:svg="http://www.w3.org/2000/svg">
  <defs
     id="defs6" />
  <g
     id="g8"
     transform="matrix(1.3333333,0,0,-1.3333333,0,113.84533)">
    <g
       id="g10"
       transform="translate(29.112,25.259)">
      <g
         id="g12">
        <g
           id="g14">
          <g
             id="g16" />
          <g
             id="g18" />
          <g
             id="g20" />
          <g
             id="g22" />
          <g
             id="g24" />
          <g
             id="g26" />
          <g
             id="g28" />
          <g
             id="g30" />
          <g
             id="g32">
            <path
               d="M 0,0 H 56.69362 V 56.69362 H 0 Z"
               style="fill:#f9fcf2;fill-opacity:0.3;fill-rule:nonzero;stroke:#80be34;stroke-width:0.79701;stroke-linecap:butt;stroke-linejoin:miter;stroke-miterlimit:10;stroke-dasharray:2.98883, 2.98883;stroke-dashoffset:0;stroke-opacity:0.8"
               id="path34" />
          </g>
          <g
             id="g36">
            <path
               d="M 0,0 -21.82672,-21.82672"
               style="fill:#f9fcf2;fill-opacity:0.3;fill-rule:nonzero;stroke:#80be34;stroke-width:0.79701;stroke-linecap:butt;stroke-linejoin:miter;stroke-miterlimit:10;stroke-dasharray:2.98883, 2.98883;stroke-dashoffset:0;stroke-opacity:0.8"
               id="path38" />
          </g>
          <g
             id="g40">
            <g
               id="g42">
              <path
                 d="M -4.36526,-4.36526 V 52.31967 H 52.31967 V -4.36526 Z"
                 style="fill:#f9fcf2;fill-opacity:1;fill-rule:nonzero;stroke:#616d4b;stroke-width:0.3985;stroke-linecap:butt;stroke-linejoin:miter;stroke-miterlimit:10;stroke-dasharray:none;stroke-opacity:1"
                 id="path44" />
            </g>
            <g
               id="g46">
              <path
                 d="M -4.36526,-4.36526 H 52.31967 M -4.36526,6.97153 H 52.31967 M -4.36526,18.30835 H 52.31967 M -4.36526,29.64516 H 52.31967 M -4.36526,40.98198 H 52.31967 M -4.36526,52.31879 H 52.31967 M -4.36526,-4.36526 V 52.31967 M 6.97153,-4.36526 V 52.31967 M 18.30835,-4.36526 V 52.31967 M 29.64516,-4.36526 V 52.31967 M 40.98198,-4.36526 V 52.31967 M 52.31879,-4.36526 v 56.68493"
                 style="fill:none;stroke:#808080;stroke-width:0.19925;stroke-linecap:butt;stroke-linejoin:miter;stroke-miterlimit:10;stroke-dasharray:none;stroke-opacity:1"
                 id="path48" />
            </g>
          </g>
          <g
             id="g50">
            <g
               id="g52">
              <path
                 d="M -8.73055,-8.73055 V 47.95439 H 47.95439 V -8.73055 Z"
                 style="fill:#f9fcf2;fill-opacity:1;fill-rule:nonzero;stroke:#616d4b;stroke-width:0.3985;stroke-linecap:butt;stroke-linejoin:miter;stroke-miterlimit:10;stroke-dasharray:none;stroke-opacity:1"
                 id="path54" />
            </g>
            <g
               id="g56">
              <path
                 d="M -8.73055,-8.73055 H 47.95439 M -8.73055,2.60625 H 47.95439 M -8.73055,13.94307 H 47.95439 M -8.73055,25.27988 H 47.95439 M -8.73055,36.6167 H 47.95439 M -8.73055,47.9535 H 47.95439 M -8.73055,-8.73055 V 47.95439 M 2.60625,-8.73055 V 47.95439 M 13.94307,-8.73055 V 47.95439 M 25.27988,-8.73055 V 47.95439 M 36.6167,-8.73055 V 47.95439 M 47.9535,-8.73055 v 56.68494"
                 style="fill:none;stroke:#808080;stroke-width:0.19925;stroke-linecap:butt;stroke-linejoin:miter;stroke-miterlimit:10;stroke-dasharray:none;stroke-opacity:1"
                 id="path58" />
            </g>
          </g>
          <g
             id="g60">
            <g
               id="g62">
              <path
                 d="M -13.09583,-13.09583 V 43.58911 H 43.58911 V -13.09583 Z"
                 style="fill:#f9fcf2;fill-opacity:1;fill-rule:nonzero;stroke:#616d4b;stroke-width:0.3985;stroke-linecap:butt;stroke-linejoin:miter;stroke-miterlimit:10;stroke-dasharray:none;stroke-opacity:1"
                 id="path64" />
            </g>
            <g
               id="g66">
              <path
                 d="M -13.09583,-13.09583 H 43.58911 M -13.09583,-1.75902 H 43.58911 M -13.09583,9.57779 H 43.58911 M -13.09583,20.9146 H 43.58911 M -13.09583,32.25142 H 43.58911 M -13.09583,43.58823 H 43.58911 M -13.09583,-13.09583 V 43.58911 M -1.75902,-13.09583 V 43.58911 M 9.57779,-13.09583 V 43.58911 M 20.9146,-13.09583 v 56.68494 m 11.33682,-56.68494 v 56.68494 m 11.33681,-56.68494 v 56.68494"
                 style="fill:none;stroke:#808080;stroke-width:0.19925;stroke-linecap:butt;stroke-linejoin:miter;stroke-miterlimit:10;stroke-dasharray:none;stroke-opacity:1"
                 id="path68" />
            </g>
          </g>
          <g
             id="g70">
            <g
               id="g72">
              <path
                 d="M -17.4611,-17.4611 V 39.22383 H 39.22383 V -17.4611 Z"
                 style="fill:#f9fcf2;fill-opacity:1;fill-rule:nonzero;stroke:#616d4b;stroke-width:0.3985;stroke-linecap:butt;stroke-linejoin:miter;stroke-miterlimit:10;stroke-dasharray:none;stroke-opacity:1"
                 id="path74" />
            </g>
            <g
               id="g76">
              <path
                 d="M -17.4611,-17.4611 H 39.22383 M -17.4611,-6.1243 H 39.22383 M -17.4611,5.21251 H 39.22383 M -17.4611,16.54932 H 39.22383 M -17.4611,27.88614 H 39.22383 M -17.4611,39.22295 H 39.22383 M -17.4611,-17.4611 V 39.22383 M -6.1243,-17.4611 V 39.22383 M 5.21251,-17.4611 V 39.22383 M 16.54932,-17.4611 V 39.22383 M 27.88614,-17.4611 V 39.22383 M 39.22295,-17.4611 v 56.68493"
                 style="fill:none;stroke:#808080;stroke-width:0.19925;stroke-linecap:butt;stroke-linejoin:miter;stroke-miterlimit:10;stroke-dasharray:none;stroke-opacity:1"
                 id="path78" />
            </g>
          </g>
          <g
             id="g80">
            <g
               id="g82">
              <path
                 d="M -21.82639,-21.82639 V 34.85855 H 34.85855 V -21.82639 Z"
                 style="fill:#f9fcf2;fill-opacity:1;fill-rule:nonzero;stroke:#616d4b;stroke-width:0.3985;stroke-linecap:butt;stroke-linejoin:miter;stroke-miterlimit:10;stroke-dasharray:none;stroke-opacity:1"
                 id="path84" />
            </g>
            <g
               id="g86">
              <path
                 d="m -21.82639,-21.82639 h 56.68494 m -56.68494,11.33683 H 34.85855 M -21.82639,0.84723 h 56.68494 m -56.68494,11.33681 h 56.68494 m -56.68494,11.33682 h 56.68494 m -56.68494,11.33681 h 56.68494 m -56.68494,-56.68406 v 56.68494 m 11.33683,-56.68494 V 34.85855 M 0.84723,-21.82639 v 56.68494 m 11.33681,-56.68494 v 56.68494 m 11.33682,-56.68494 v 56.68494 m 11.33681,-56.68494 v 56.68494"
                 style="fill:none;stroke:#808080;stroke-width:0.19925;stroke-linecap:butt;stroke-linejoin:miter;stroke-miterlimit:10;stroke-dasharray:none;stroke-opacity:1"
                 id="path88" />
            </g>
          </g>
          <g
             id="g90">
            <path
               d="m -21.82672,-21.82672 h 56.6936 v 56.6936 h -56.6936 z"
               style="fill:#f9fcf2;fill-opacity:0.3;fill-rule:nonzero;stroke:#80be34;stroke-width:1.19553;stroke-linecap:butt;stroke-linejoin:miter;stroke-miterlimit:10;stroke-dasharray:5.97766, 1.99255;stroke-dashoffset:0;stroke-opacity:0.8"
               id="path92" />
          </g>
          <g
             id="g94">
            <path
               d="M 0,56.69362 -21.82672,34.86688"
               style="fill:#f9fcf2;fill-opacity:0.3;fill-rule:nonzero;stroke:#80be34;stroke-width:1.19553;stroke-linecap:butt;stroke-linejoin:miter;stroke-miterlimit:10;stroke-dasharray:5.97766, 1.99255;stroke-dashoffset:0;stroke-opacity:0.8"
               id="path96" />
          </g>
          <g
             id="g98">
            <path
               d="M 56.69362,0 34.86688,-21.82672"
               style="fill:#f9fcf2;fill-opacity:0.3;fill-rule:nonzero;stroke:#80be34;stroke-width:1.19553;stroke-linecap:butt;stroke-linejoin:miter;stroke-miterlimit:10;stroke-dasharray:5.97766, 1.99255;stroke-dashoffset:0;stroke-opacity:0.8"
               id="path100" />
          </g>
          <g
             id="g102">
            <path
               d="M 56.69362,56.69362 34.86688,34.86688"
               style="fill:#f9fcf2;fill-opacity:0.3;fill-rule:nonzero;stroke:#80be34;stroke-width:1.19553;stroke-linecap:butt;stroke-linejoin:miter;stroke-miterlimit:10;stroke-dasharray:5.97766, 1.99255;stroke-dashoffset:0;stroke-opacity:0.8"
               id="path104" />
          </g>
          <g
             id="g106">
            <path
               d="M 56.69362,0 V 56.69362"
               style="fill:#f9fcf2;fill-opacity:0.3;fill-rule:nonzero;stroke:#80be34;stroke-width:1.19553;stroke-linecap:butt;stroke-linejoin:miter;stroke-miterlimit:10;stroke-dasharray:5.97766, 1.99255;stroke-dashoffset:0;stroke-opacity:0.8"
               id="path108" />
          </g>
          <g
             id="g110">
            <path
               d="M 56.69362,56.69362 H 0"
               style="fill:#f9fcf2;fill-opacity:0.3;fill-rule:nonzero;stroke:#80be34;stroke-width:1.19553;stroke-linecap:butt;stroke-linejoin:miter;stroke-miterlimit:10;stroke-dasharray:5.97766, 1.99255;stroke-dashoffset:0;stroke-opacity:0.8"
               id="path112" />
          </g>
          <g
             id="g114">
            <path
               d="M -26.07857,34.86688 -4.9563,55.98915"
               style="fill:none;stroke:#918f90;stroke-width:0.3985;stroke-linecap:butt;stroke-linejoin:miter;stroke-miterlimit:10;stroke-dasharray:none;stroke-opacity:1"
               id="path116" />
            <g
               id="g118">
              <g
                 id="g120"
                 transform="matrix(0.7071,0.7071,-0.7071,0.7071,-4.95631,55.98914)">
                <g
                   id="g122">
                  <path
                     d="m 0.797,0 c -0.99625,0.19925 -1.99251,0.59775 -3.18802,1.29512 1.19551,-0.89662 1.19551,-1.69362 0,-2.59024 C -1.19551,-0.59775 -0.19925,-0.19925 0.797,0 Z"
                     style="fill:#918f90;fill-opacity:1;fill-rule:nonzero;stroke:#918f90;stroke-width:0.3985;stroke-linecap:butt;stroke-linejoin:round;stroke-miterlimit:10;stroke-dasharray:none;stroke-opacity:1"
                     id="path124" />
                </g>
              </g>
            </g>
          </g>
        </g>
      </g>
    </g>
  </g>
</svg>
